<svg width="279.1" height="94" viewBox="-2 -2 279.1 94" xmlns="http://www.w3.org/2000/svg">
  <g id="svgGroup" stroke-linecap="round" fill-rule="nonzero" fill="#000000" stroke="#000000" stroke-width="0.5">
      <path d="M22.200 75.600Q13.725 75.600 8.813 71.775Q3.900 67.950 3.900 61.575L3.900 61.575L3.900 59.250Q3.900 58.500 4.650 58.500L4.650 58.500L8.325 58.500Q9.075 58.500 9.075 59.250L9.075 59.250L9.075 61.275Q9.075 65.625 12.675 68.287Q16.275 70.950 22.650 70.950L22.650 70.950Q28.425 70.950 31.425 68.513Q34.425 66.075 34.425 62.025L34.425 62.025Q34.425 59.400 33.038 57.525Q31.650 55.650 28.762 54Q25.875 52.350 20.625 50.175L20.625 50.175Q15 47.925 11.887 46.237Q8.775 44.550 6.862 41.888Q4.950 39.225 4.950 35.175L4.950 35.175Q4.950 28.875 9.338 25.388Q13.725 21.900 21.375 21.900L21.375 21.900Q29.700 21.900 34.500 25.800Q39.300 29.700 39.300 36.150L39.300 36.150L39.300 37.800Q39.300 38.550 38.550 38.550L38.550 38.550L34.800 38.550Q34.050 38.550 34.050 37.800L34.050 37.800L34.050 36.450Q34.050 32.100 30.637 29.325Q27.225 26.550 21.150 26.550L21.150 26.550Q15.825 26.550 12.975 28.725Q10.125 30.900 10.125 35.025L10.125 35.025Q10.125 37.725 11.512 39.488Q12.900 41.250 15.487 42.563Q18.075 43.875 23.475 45.975L23.475 45.975Q28.950 48.225 32.288 50.175Q35.625 52.125 37.688 54.938Q39.750 57.750 39.750 61.800L39.750 61.800Q39.750 68.100 35.100 71.850Q30.450 75.600 22.200 75.600L22.200 75.600ZM82.125 23.250Q82.125 22.500 82.875 22.500L82.875 22.500L86.700 22.500Q87.450 22.500 87.450 23.250L87.450 23.250L87.450 74.250Q87.450 75 86.700 75L86.700 75L82.950 75Q82.425 75 82.050 74.475L82.050 74.475L56.475 32.850Q56.400 32.625 56.250 32.663Q56.100 32.700 56.100 32.925L56.100 32.925L56.175 74.250Q56.175 75 55.425 75L55.425 75L51.600 75Q50.850 75 50.850 74.250L50.850 74.250L50.850 23.250Q50.850 22.500 51.600 22.500L51.600 22.500L55.350 22.500Q55.875 22.500 56.250 23.025L56.250 23.025L81.825 64.650Q81.900 64.875 82.050 64.838Q82.200 64.800 82.200 64.575L82.200 64.575L82.125 23.250ZM117.750 75.600Q112.425 75.600 108.375 73.425Q104.325 71.250 102.112 67.313Q99.900 63.375 99.900 58.200L99.900 58.200L99.900 39.300Q99.900 34.125 102.112 30.188Q104.325 26.250 108.375 24.075Q112.425 21.900 117.750 21.900L117.750 21.900Q123.075 21.900 127.162 24.075Q131.250 26.250 133.463 30.188Q135.675 34.125 135.675 39.300L135.675 39.300L135.675 58.200Q135.675 63.375 133.463 67.313Q131.250 71.250 127.162 73.425Q123.075 75.600 117.750 75.600L117.750 75.600ZM117.750 71.025Q123.450 71.025 126.900 67.575Q130.350 64.125 130.350 58.425L130.350 58.425L130.350 39.225Q130.350 33.525 126.900 30.038Q123.450 26.550 117.750 26.550L117.750 26.550Q112.125 26.550 108.675 30.038Q105.225 33.525 105.225 39.225L105.225 39.225L105.225 58.425Q105.225 64.125 108.675 67.575Q112.125 71.025 117.750 71.025L117.750 71.025ZM168.150 22.425Q174.750 22.425 178.762 26.475Q182.775 30.525 182.775 37.125L182.775 37.125Q182.775 43.650 178.688 47.625Q174.600 51.600 167.925 51.600L167.925 51.600L153.300 51.600Q153 51.600 153 51.900L153 51.900L153 74.250Q153 75 152.250 75L152.250 75L148.425 75Q147.675 75 147.675 74.250L147.675 74.250L147.675 23.175Q147.675 22.425 148.425 22.425L148.425 22.425L168.150 22.425ZM167.550 47.175Q171.975 47.175 174.750 44.438Q177.525 41.700 177.525 37.200L177.525 37.200Q177.525 32.625 174.750 29.850Q171.975 27.075 167.550 27.075L167.550 27.075L153.300 27.075Q153 27.075 153 27.375L153 27.375L153 46.875Q153 47.175 153.300 47.175L153.300 47.175L167.550 47.175ZM226.575 26.400Q226.575 27.150 225.825 27.150L225.825 27.150L198.225 27.150Q197.925 27.150 197.925 27.450L197.925 27.450L197.925 45.975Q197.925 46.275 198.225 46.275L198.225 46.275L217.575 46.275Q218.325 46.275 218.325 47.025L218.325 47.025L218.325 50.175Q218.325 50.925 217.575 50.925L217.575 50.925L198.225 50.925Q197.925 50.925 197.925 51.225L197.925 51.225L197.925 70.050Q197.925 70.350 198.225 70.350L198.225 70.350L225.825 70.350Q226.575 70.350 226.575 71.100L226.575 71.100L226.575 74.250Q226.575 75 225.825 75L225.825 75L193.350 75Q192.600 75 192.600 74.250L192.600 74.250L192.600 23.250Q192.600 22.500 193.350 22.500L193.350 22.500L225.825 22.500Q226.575 22.500 226.575 23.250L226.575 23.250L226.575 26.400ZM234.375 75Q233.925 75 233.813 74.737Q233.700 74.475 233.925 74.100L233.925 74.100L249.675 48.975Q249.825 48.750 249.675 48.525L249.675 48.525L233.925 23.400Q233.775 23.100 233.775 22.950L233.775 22.950Q233.775 22.500 234.375 22.500L234.375 22.500L238.575 22.500Q239.100 22.500 239.475 23.025L239.475 23.025L252.825 44.400Q252.900 44.475 253.050 44.475Q253.200 44.475 253.275 44.400L253.275 44.400L266.550 23.025Q266.925 22.500 267.450 22.500L267.450 22.500L271.575 22.500Q272.025 22.500 272.137 22.763Q272.250 23.025 272.025 23.400L272.025 23.400L256.350 48.600Q256.275 48.825 256.350 49.050L256.350 49.050L272.025 74.100Q272.175 74.400 272.175 74.550L272.175 74.550Q272.175 75 271.575 75L271.575 75L267.450 75Q266.925 75 266.550 74.475L266.550 74.475L253.275 53.175Q253.200 53.025 253.050 53.025Q252.900 53.025 252.825 53.175L252.825 53.175L239.475 74.475Q239.100 75 238.575 75L238.575 75L234.375 75Z" />
  </g>
</svg>